<svg xmlns="http://www.w3.org/2000/svg" viewBox="0 0 1303.95 248.69"><defs><style>.cls-1{fill:#a00070;}.cls-2{fill:#3d0046;}</style></defs><g id="Layer_2" data-name="Layer 2"><g id="Ñëîé_1" data-name="Ñëîé 1"><path class="cls-1" d="M1283.21,176.87c-46.25.57.69,55.7.69,55.7S1329.46,176.3,1283.21,176.87Zm.44,35.23a15.63,15.63,0,1,1,15.43-15.82A15.62,15.62,0,0,1,1283.65,212.1Z"/><path class="cls-1" d="M1283.29,183A13.5,13.5,0,1,0,1297,196.31,13.49,13.49,0,0,0,1283.29,183Zm.3,24.81a11.32,11.32,0,1,1,11.19-11.46A11.32,11.32,0,0,1,1283.59,207.79Z"/><path class="cls-2" d="M1289.28,243.38a5.25,5.25,0,1,1-5.31-5.18A5.23,5.23,0,0,1,1289.28,243.38Z"/><path class="cls-2" d="M69.43,247.86h0a14,14,0,0,0,7.92-11.48l4.11-50.66A10,10,0,0,1,87,177.55l17.43-8.48a32,32,0,0,0,11.15-9l1.94-2.46a3,3,0,0,0-2.33-4.9l-3.13,0a32.05,32.05,0,0,0-14,3l-17.58,8.16a10,10,0,0,1-9.86-.83L28.78,134.2a14,14,0,0,0-13.91-1.11h0c17.6,12.83,33.2,31.89,39.45,40a2.18,2.18,0,0,1-.81,3.3h0l-2.71-3.24a3.92,3.92,0,0,0-5.3-.67L41,175.67a3.34,3.34,0,0,0-1.26,1.78h0a3.41,3.41,0,0,1-1.34,1.82l-1.65,1.12,2.15-.6a3.32,3.32,0,0,1,2,.08l1.1.39,1.78.59-3.73,1.73a30.91,30.91,0,0,0-6.68,4.2l-10.26,8.44L12.51,184.87A6.84,6.84,0,0,0,4.05,184l-4,2.59,15.43,14.95-2.86,2.35a.58.58,0,0,0,.49,1l3.63-.73,1.85,21.4,4.6-1.51A6.84,6.84,0,0,0,27.82,217l-1.2-14.85,12.88-2.6A30.91,30.91,0,0,0,47,197.06l3.7-1.8L50,197l-.39,1.1a3.41,3.41,0,0,1-1.23,1.62L46.58,201l1.9-.57a3.32,3.32,0,0,1,2.26.11h0a3.33,3.33,0,0,0,2.18.14l5.33-1.44a3.93,3.93,0,0,0,2.82-4.53l-.8-4.14h0A2.18,2.18,0,0,1,63.34,192C65.66,202,70.59,226.12,69.43,247.86Z"/><path class="cls-2" d="M151.79,143.63a3,3,0,0,1-1.8-5.69l9.2-3.94a3,3,0,1,1,2.36,5.51q-4.61,2-9.18,3.94A3.22,3.22,0,0,1,151.79,143.63Z"/><path class="cls-2" d="M1257.23,215.05a3,3,0,0,1-2.75-.84c-4.28-4.35-9-8.92-14.39-14a3,3,0,0,1,4.1-4.38c5.47,5.11,10.23,9.74,14.57,14.16a3,3,0,0,1-1.53,5Zm-29.37-27.71a3,3,0,0,1-2.62-.71l-3.81-3.43-6.35-5.74-4.82-4.31a3,3,0,0,1,4-4.5c1.63,1.45,3.26,2.9,4.87,4.36l6.35,5.73,3.81,3.44a3,3,0,0,1,.22,4.24A3,3,0,0,1,1227.86,187.34Zm-30.37-26.6a3,3,0,0,1-2.52-.62c-5.14-4.22-10.43-8.41-15.75-12.47a3,3,0,0,1,3.64-4.77c5.37,4.1,10.73,8.34,15.92,12.6a3,3,0,0,1,.41,4.23A3,3,0,0,1,1197.49,160.74Zm-32.1-24.52a3,3,0,0,1-2.35-.49c-5.42-3.85-11-7.68-16.58-11.36a3,3,0,0,1,3.31-5c5.63,3.72,11.27,7.59,16.75,11.48a3,3,0,0,1-1.13,5.38Zm-33.7-22.28a3,3,0,0,1-2.18-.38c-5.66-3.48-11.47-6.93-17.29-10.26a3,3,0,1,1,3-5.21c5.87,3.36,11.74,6.84,17.46,10.36a3,3,0,0,1-1,5.49Zm-35.07-20.07a3,3,0,0,1-2-.28c-5.86-3.12-11.89-6.21-17.9-9.17a3,3,0,0,1,2.65-5.38c6.07,3,12.15,6.1,18.07,9.25a3,3,0,0,1-.8,5.58ZM1060.38,76a2.91,2.91,0,0,1-1.85-.21c-6-2.76-12.25-5.49-18.42-8.1a3,3,0,1,1,2.34-5.52c6.22,2.63,12.47,5.38,18.57,8.17a3,3,0,0,1,1.48,4A3,3,0,0,1,1060.38,76Zm-37.22-15.74a3,3,0,0,1-1.69-.14c-6.2-2.42-12.54-4.79-18.85-7.06a3,3,0,1,1,2-5.65c6.36,2.29,12.75,4.68,19,7.12a3,3,0,0,1-.49,5.73Zm-38-13.65a3,3,0,0,1-1.54-.09c-6.33-2.08-12.79-4.11-19.2-6a3,3,0,0,1,1.72-5.74c6.46,1.94,13,4,19.35,6.08a3,3,0,0,1-.33,5.79ZM946.43,35a2.85,2.85,0,0,1-1.39,0c-6.43-1.75-13-3.44-19.49-5A3,3,0,1,1,927,24.08c6.55,1.6,13.15,3.31,19.63,5.07a3,3,0,0,1-.18,5.83ZM907.2,25.37a3.1,3.1,0,0,1-1.25,0c-6.52-1.43-13.15-2.79-19.72-4.06a3,3,0,0,1,1.14-5.89c6.62,1.28,13.3,2.65,19.86,4.09a3,3,0,0,1,0,5.87ZM867.54,17.7a2.76,2.76,0,0,1-1.11,0c-6.57-1.1-13.26-2.14-19.88-3.09a3,3,0,1,1,.85-5.94c6.67,1,13.41,2,20,3.12a3,3,0,0,1,.11,5.89Zm-40-5.73a3.07,3.07,0,0,1-1,0c-6.63-.79-13.36-1.51-20-2.14a3,3,0,0,1,.57-6c6.7.64,13.48,1.37,20.15,2.16a3,3,0,0,1,.25,5.92ZM787.37,8.14a2.86,2.86,0,0,1-.83.06c-6.65-.48-13.4-.88-20.08-1.2a3,3,0,0,1,.29-6c6.72.33,13.52.73,20.22,1.21a3,3,0,0,1,.4,5.93ZM179.58,131.85a3,3,0,0,1-1.76-5.71c6.22-2.59,12.5-5.19,18.69-7.7a3,3,0,1,1,2.26,5.55c-6.17,2.51-12.44,5.1-18.64,7.69A3.86,3.86,0,0,1,179.58,131.85ZM217,116.62a3,3,0,0,1-1.72-5.73c6.28-2.49,12.62-5,18.83-7.37a3,3,0,1,1,2.16,5.59c-6.19,2.4-12.51,4.87-18.77,7.36ZM747.05,6.21a3.11,3.11,0,0,1-.69.06l-3.89-.09c-5.38-.1-10.83-.16-16.23-.18a3,3,0,0,1,0-6c5.43,0,10.92.08,16.32.19l3.93.08a3,3,0,0,1,.54,5.94ZM254.64,102.06A3,3,0,0,1,253,96.31c6.32-2.37,12.7-4.73,19-7A3,3,0,1,1,274,94.93c-6.25,2.28-12.61,4.63-18.91,7A2.54,2.54,0,0,1,254.64,102.06Zm452-96a5,5,0,0,1-.56.06c-6.66.11-13.43.3-20.12.55a3,3,0,0,1-.23-6C692.5.45,699.31.27,706,.15a3,3,0,0,1,.67,5.94ZM292.58,88.24a3,3,0,0,1-1.6-5.77c6.35-2.24,12.78-4.47,19.1-6.63A3,3,0,0,1,312,81.52c-6.31,2.15-12.72,4.37-19,6.61ZM666.33,7.6a3.11,3.11,0,0,1-.44.06c-6.64.38-13.4.83-20.09,1.35a3,3,0,1,1-.45-6c6.72-.51,13.52-1,20.2-1.35a3,3,0,0,1,.78,5.93ZM330.8,75.22a3,3,0,0,1-1.54-5.79c6.4-2.1,12.88-4.19,19.25-6.2A3,3,0,1,1,350.32,69C344,71,337.51,73,331.13,75.13ZM626.07,10.68a1.63,1.63,0,0,1-.33.05c-6.63.64-13.36,1.34-20,2.1a3,3,0,1,1-.68-6c6.69-.76,13.47-1.47,20.13-2.11a3,3,0,0,1,.9,5.92ZM369.31,63.07a3,3,0,0,1-1.47-5.81c6.46-2,13-3.89,19.39-5.74a3,3,0,1,1,1.67,5.76C382.51,59.13,376,61.05,369.57,63ZM586,15.25l-.22,0c-6.58.86-13.29,1.81-19.94,2.8a3,3,0,1,1-.89-5.93c6.69-1,13.43-1.95,20.05-2.82a3,3,0,0,1,1,5.91ZM408.1,51.86A3,3,0,0,1,406.7,46c6.52-1.8,13.1-3.56,19.54-5.24a3,3,0,0,1,1.52,5.81c-6.42,1.67-13,3.43-19.47,5.21ZM546,21.21l-.12,0c-6.56,1.1-13.24,2.26-19.84,3.47A3,3,0,1,1,525,18.8c6.64-1.21,13.35-2.39,19.94-3.48A3,3,0,0,1,546,21.21ZM447.18,41.67a3,3,0,0,1-1.33-5.85c6.55-1.61,13.17-3.19,19.69-4.69A3,3,0,0,1,466.89,37c-6.49,1.5-13.09,3.08-19.6,4.68Zm39.34-9.08a3,3,0,0,1-1.24-5.87c3.33-.72,6.66-1.44,10-2.11s6.55-1.35,9.83-2a3,3,0,1,1,1.17,5.88c-3.31.66-6.63,1.34-9.93,2s-6.53,1.37-9.79,2.08Z"/><path class="cls-2" d="M1277.2,237.4a3,3,0,0,1-3-1.07c-2-2.52-4.14-5.08-6.32-7.6a3,3,0,0,1,4.54-3.92c2.23,2.58,4.41,5.19,6.47,7.78a3,3,0,0,1-1.73,4.81Z"/></g></g></svg>