<svg xmlns="http://www.w3.org/2000/svg" viewBox="0 0 2396.08 292.89"><defs><style>.cls-1{fill:#a00070;}.cls-2{fill:#3d0046;}.cls-3,.cls-4{fill:none;stroke:#3d0046;stroke-miterlimit:10;stroke-width:3px;}.cls-4{stroke-dasharray:11.96 11.96;}</style></defs><g id="Layer_2" data-name="Layer 2"><g id="Ñëîé_1" data-name="Ñëîé 1"><path class="cls-1" d="M2375.52,0c-46.26,0,0,55.7,0,55.7S2421.77,0,2375.52,0Zm0,35.23a15.63,15.63,0,1,1,15.63-15.63A15.63,15.63,0,0,1,2375.52,35.23Z"/><path class="cls-1" d="M2375.52,6.11A13.5,13.5,0,1,0,2389,19.6,13.49,13.49,0,0,0,2375.52,6.11Zm0,24.81a11.32,11.32,0,1,1,11.33-11.32A11.33,11.33,0,0,1,2375.52,30.92Z"/><path class="cls-2" d="M2380.77,66.58a5.25,5.25,0,1,1-5.25-5.25A5.25,5.25,0,0,1,2380.77,66.58Z"/><path class="cls-2" d="M24.61,277.15h0a14,14,0,0,0,13.46-3.69l35.76-36.12a10,10,0,0,1,9.53-2.66l18.8,4.73a32,32,0,0,0,14.3.31l3.07-.63a3,3,0,0,0,1.38-5.25l-2.37-2.05a32,32,0,0,0-12.63-6.73L87.2,220a10,10,0,0,1-7-7l-13.5-49a14,14,0,0,0-9.93-9.8h0c5.2,21.14,4.87,45.77,4.45,56a2.18,2.18,0,0,1-2.74,2h0V208A3.9,3.9,0,0,0,54.86,204l-5.51-.43a3.42,3.42,0,0,0-2.11.55h0a3.36,3.36,0,0,1-2.2.54l-2-.21,2,.93a3.29,3.29,0,0,1,1.5,1.36l.59,1,1,1.6-4-1.08a31.31,31.31,0,0,0-7.82-1.08l-13.28-.15L21.61,192.3a6.84,6.84,0,0,0-5.92-6.1l-4.77-.62L13.1,207l-3.7,0A.58.58,0,0,0,9.12,208l3.25,1.78L0,227.35l4.5,1.8a6.84,6.84,0,0,0,8.12-2.38l8.64-12.14,11.53,6.31a31.27,31.27,0,0,0,7.34,2.87l4,1-1.63.91-1,.59a3.3,3.3,0,0,1-2,.45l-2.22-.18,1.82.79a3.36,3.36,0,0,1,1.66,1.54h0a3.38,3.38,0,0,0,1.57,1.51l5,2.32a3.92,3.92,0,0,0,5.08-1.64l2-3.69h0a2.17,2.17,0,0,1,1.41,3.09C51.27,239.62,39.5,261.25,24.61,277.15Z"/><path class="cls-3" d="M138.82,241.09l5.9,1.06"/><path class="cls-4" d="M156.51,244.16c74.61,12.32,172.29,20.43,256.71-3.07,93.84-26.11,120.95-20.7,190.21-100.16,87.07-99.88,217.62-112.14,326,0,49.48,51.2-53.41,153.51-146,150.39-66.92-2.26-133.87-54.19-126.84-138.4,3.54-42.43,87.19-87.06,167.68-88.3,187.78-2.9,266.1,231.65,430.38,226.62,131.27-4,164.87-156.38,300-158,119.4-1.43,152,116.78,296.79,136.87,90.81,12.61,242.83-11,504.87-191.6"/><path class="cls-3" d="M2361.3,75.12l4.92-3.42"/></g></g></svg>