<svg width="1728" height="263" viewBox="0 0 1728 263" fill="none" xmlns="http://www.w3.org/2000/svg">
<path d="M1594.97 124.064C1594.97 110.111 1597.64 97.7549 1602.96 86.996C1608.45 76.2371 1615.81 67.9157 1625.06 62.0319C1634.46 55.98 1644.8 52.9541 1656.08 52.9541C1666.27 52.9541 1675.12 55.1395 1682.64 59.5103C1690.32 63.713 1696.43 69.0084 1700.97 75.3965V55.2236H1728V194.165H1700.97V173.488C1696.43 180.044 1690.24 185.507 1682.4 189.878C1674.57 194.249 1665.64 196.434 1655.61 196.434C1644.49 196.434 1634.3 193.409 1625.06 187.357C1615.81 181.137 1608.45 172.563 1602.96 161.636C1597.64 150.541 1594.97 138.017 1594.97 124.064ZM1700.97 124.568C1700.97 114.986 1699.09 106.665 1695.33 99.6041C1691.73 92.5436 1686.95 87.1641 1680.99 83.4657C1675.04 79.7674 1668.62 77.9182 1661.72 77.9182C1654.83 77.9182 1648.4 79.7674 1642.45 83.4657C1636.5 86.996 1631.64 92.2914 1627.88 99.352C1624.27 106.244 1622.47 114.482 1622.47 124.064C1622.47 133.646 1624.27 142.051 1627.88 149.28C1631.64 156.509 1636.5 162.056 1642.45 165.923C1648.56 169.621 1654.98 171.47 1661.72 171.47C1668.62 171.47 1675.04 169.621 1680.99 165.923C1686.95 162.224 1691.73 156.845 1695.33 149.784C1699.09 142.556 1700.97 134.15 1700.97 124.568Z" fill="black" fill-opacity="0.02"/>
<path d="M1552.25 75.3965C1556.16 68.336 1561.33 62.8725 1567.76 59.006C1574.34 54.9714 1582.1 52.9541 1591.03 52.9541V82.7092H1584.21C1573.71 82.7092 1565.72 85.5671 1560.24 91.2828C1554.91 96.9984 1552.25 106.917 1552.25 121.038V194.165H1525.45V55.2236H1552.25V75.3965Z" fill="black" fill-opacity="0.02"/>
<path d="M1481.02 78.6747V155.584C1481.02 160.796 1482.11 164.578 1484.31 166.931C1486.66 169.117 1490.57 170.21 1496.06 170.21H1512.51V194.165H1491.36C1479.29 194.165 1470.05 191.139 1463.62 185.087C1457.2 179.035 1453.99 169.201 1453.99 155.584V78.6747H1438.71V55.2236H1453.99V20.6773H1481.02V55.2236H1512.51V78.6747H1481.02Z" fill="black" fill-opacity="0.02"/>
<path d="M1374.22 52.9541C1384.4 52.9541 1393.49 55.2236 1401.48 59.7625C1409.63 64.3014 1415.97 71.0257 1420.52 79.9355C1425.06 88.8452 1427.33 99.6041 1427.33 112.212V194.165H1400.77V116.499C1400.77 104.059 1397.88 94.5609 1392.08 88.0047C1386.28 81.2803 1378.37 77.9182 1368.34 77.9182C1358.31 77.9182 1350.32 81.2803 1344.37 88.0047C1338.57 94.5609 1335.67 104.059 1335.67 116.499V194.165H1308.88V55.2236H1335.67V71.1098C1340.06 65.3941 1345.62 60.9392 1352.36 57.7452C1359.25 54.5511 1366.54 52.9541 1374.22 52.9541Z" fill="black" fill-opacity="0.02"/>
<path d="M1152.41 124.064C1152.41 110.111 1155.07 97.7549 1160.4 86.996C1165.89 76.2371 1173.25 67.9157 1182.49 62.0319C1191.9 55.98 1202.24 52.9541 1213.52 52.9541C1223.7 52.9541 1232.56 55.1395 1240.08 59.5103C1247.75 63.713 1253.86 69.0084 1258.41 75.3965V55.2236H1285.44V194.165H1258.41V173.488C1253.86 180.044 1247.68 185.507 1239.84 189.878C1232.01 194.249 1223.08 196.434 1213.05 196.434C1201.92 196.434 1191.74 193.409 1182.49 187.357C1173.25 181.137 1165.89 172.563 1160.4 161.636C1155.07 150.541 1152.41 138.017 1152.41 124.064ZM1258.41 124.568C1258.41 114.986 1256.53 106.665 1252.77 99.6041C1249.16 92.5436 1244.39 87.1641 1238.43 83.4657C1232.48 79.7674 1226.05 77.9182 1219.16 77.9182C1212.26 77.9182 1205.84 79.7674 1199.89 83.4657C1193.93 86.996 1189.08 92.2914 1185.31 99.352C1181.71 106.244 1179.91 114.482 1179.91 124.064C1179.91 133.646 1181.71 142.051 1185.31 149.28C1189.08 156.509 1193.93 162.056 1199.89 165.923C1206 169.621 1212.42 171.47 1219.16 171.47C1226.05 171.47 1232.48 169.621 1238.43 165.923C1244.39 162.224 1249.16 156.845 1252.77 149.784C1256.53 142.556 1258.41 134.15 1258.41 124.568Z" fill="black" fill-opacity="0.02"/>
<path d="M1137.88 18.9122V194.165H1111.08V74.1357L1061.26 194.165H1042.69L992.63 74.1357V194.165H965.837V18.9122H994.745L1052.09 156.341L1109.2 18.9122H1137.88Z" fill="black" fill-opacity="0.02"/>
<path d="M821.176 52.9541C831.204 52.9541 840.057 55.1395 847.734 59.5103C855.568 63.713 861.679 69.0084 866.066 75.3965V55.2236H893.095V196.434C893.095 209.211 890.588 220.558 885.574 230.476C880.56 240.563 873.274 248.464 863.716 254.18C854.315 259.895 843.034 262.753 829.872 262.753C812.323 262.753 797.751 258.298 786.157 249.389C774.562 240.647 767.981 228.711 766.414 213.582H792.972C795.009 220.81 799.318 226.61 805.899 230.981C812.636 235.52 820.627 237.789 829.872 237.789C840.683 237.789 849.379 234.259 855.96 227.198C862.698 220.138 866.066 209.883 866.066 196.434V173.236C861.522 179.792 855.333 185.339 847.499 189.878C839.821 194.249 831.047 196.434 821.176 196.434C809.894 196.434 799.553 193.409 790.152 187.357C780.908 181.137 773.543 172.563 768.059 161.636C762.732 150.541 760.068 138.017 760.068 124.064C760.068 110.111 762.732 97.7549 768.059 86.996C773.543 76.2371 780.908 67.9157 790.152 62.0319C799.553 55.98 809.894 52.9541 821.176 52.9541ZM866.066 124.568C866.066 114.986 864.186 106.665 860.426 99.6041C856.822 92.5436 852.043 87.1641 846.089 83.4657C840.135 79.7674 833.711 77.9182 826.817 77.9182C819.922 77.9182 813.498 79.7674 807.544 83.4657C801.59 86.996 796.733 92.2914 792.972 99.352C789.369 106.244 787.567 114.482 787.567 124.064C787.567 133.646 789.369 142.051 792.972 149.28C796.733 156.509 801.59 162.056 807.544 165.923C813.655 169.621 820.079 171.47 826.817 171.47C833.711 171.47 840.135 169.621 846.089 165.923C852.043 162.224 856.822 156.845 860.426 149.784C864.186 142.556 866.066 134.15 866.066 124.568Z" fill="black" fill-opacity="0.02"/>
<path d="M693.458 52.9541C703.642 52.9541 712.73 55.2236 720.721 59.7625C728.869 64.3014 735.214 71.0257 739.758 79.9355C744.302 88.8452 746.574 99.6041 746.574 112.212V194.165H720.016V116.499C720.016 104.059 717.117 94.5609 711.32 88.0047C705.522 81.2803 697.61 77.9182 687.582 77.9182C677.554 77.9182 669.563 81.2803 663.609 88.0047C657.812 94.5609 654.913 104.059 654.913 116.499V194.165H628.12V55.2236H654.913V71.1098C659.3 65.3941 664.862 60.9392 671.6 57.7452C678.494 54.5511 685.78 52.9541 693.458 52.9541Z" fill="black" fill-opacity="0.02"/>
<path d="M591.533 36.8157C586.676 36.8157 582.602 35.0506 579.312 31.5203C576.021 27.99 574.376 23.6192 574.376 18.4079C574.376 13.1965 576.021 8.82568 579.312 5.29541C582.602 1.76513 586.676 0 591.533 0C596.234 0 600.229 1.76513 603.52 5.29541C606.81 8.82568 608.455 13.1965 608.455 18.4079C608.455 23.6192 606.81 27.99 603.52 31.5203C600.229 35.0506 596.234 36.8157 591.533 36.8157ZM604.695 55.2236V194.165H577.901V55.2236H604.695Z" fill="black" fill-opacity="0.02"/>
<path d="M510.751 124.82L570.448 194.165H534.254L486.308 134.403V194.165H459.515V7.56488H486.308V115.995L533.314 55.2236H570.448L510.751 124.82Z" fill="black" fill-opacity="0.02"/>
<path d="M392.364 124.82L452.062 194.165H415.867L367.921 134.403V194.165H341.128V7.56488H367.921V115.995L414.927 55.2236H452.062L392.364 124.82Z" fill="black" fill-opacity="0.02"/>
<path d="M326.512 121.29C326.512 126.501 326.199 131.208 325.572 135.411H226.625C227.408 146.506 231.247 155.416 238.141 162.14C245.036 168.865 253.497 172.227 263.525 172.227C277.94 172.227 288.124 165.755 294.078 152.81H322.987C319.07 165.587 311.941 176.093 301.599 184.331C291.415 192.4 278.723 196.434 263.525 196.434C251.146 196.434 240.022 193.493 230.15 187.609C220.436 181.557 212.758 173.151 207.118 162.393C201.634 151.466 198.892 138.857 198.892 124.568C198.892 110.279 201.555 97.7549 206.883 86.996C212.367 76.069 219.966 67.6636 229.68 61.7798C239.552 55.896 250.833 52.9541 263.525 52.9541C275.746 52.9541 286.636 55.8119 296.194 61.5276C305.751 67.2433 313.194 75.3125 318.521 85.7352C323.849 95.9898 326.512 107.841 326.512 121.29ZM298.544 112.212C298.387 101.621 294.862 93.132 287.968 86.7439C281.073 80.3557 272.534 77.1617 262.349 77.1617C253.105 77.1617 245.192 80.3557 238.611 86.7439C232.031 92.9639 228.114 101.453 226.86 112.212H298.544Z" fill="black" fill-opacity="0.02"/>
<path d="M156.165 75.3965C160.083 68.336 165.253 62.8725 171.677 59.006C178.258 54.9714 186.014 52.9541 194.945 52.9541V82.7092H188.129C177.631 82.7092 169.64 85.5671 164.156 91.2828C158.829 96.9984 156.165 106.917 156.165 121.038V194.165H129.372V55.2236H156.165V75.3965Z" fill="black" fill-opacity="0.02"/>
<path d="M113.989 18.9122V42.3633H70.5087V194.165H43.7154V42.3633H0V18.9122H113.989Z" fill="black" fill-opacity="0.02"/>
</svg>
