<svg width="40" height="40" viewBox="0 0 40 40" fill="none" xmlns="http://www.w3.org/2000/svg">
<path d="M35.6619 34.008H4.33834C2.63214 34.008 1.25977 32.6305 1.25977 30.9179V12.0234C1.25977 10.3108 2.63214 8.93323 4.33834 8.93323H35.6619C37.3681 8.93323 38.7405 10.3108 38.7405 12.0234V30.8993C38.7405 32.6119 37.3681 34.008 35.6619 34.008Z" fill="#FF8776"/>
<path d="M35.6618 34.25H4.33821C2.5022 34.25 1 32.7422 1 30.8993V12.0234C1 10.1804 2.5022 8.67261 4.33821 8.67261H35.6618C37.4978 8.67261 39 10.1804 39 12.0234V30.8993C39 32.7608 37.4978 34.25 35.6618 34.25ZM4.33821 9.17522C2.78038 9.17522 1.50073 10.4597 1.50073 12.0234V30.8993C1.50073 32.4629 2.78038 33.7474 4.33821 33.7474H35.6618C37.2196 33.7474 38.4993 32.4629 38.4993 30.8993V12.0234C38.4993 10.4597 37.2196 9.17522 35.6618 9.17522H4.33821Z" fill="#000030"/>
<path d="M12.7585 8.93322H7.10205V7.14615C7.10205 6.51323 7.62133 5.992 8.25188 5.992H11.6272C12.2577 5.992 12.777 6.51323 12.777 7.14615V8.93322H12.7585Z" fill="#59DBD2"/>
<path d="M12.7583 9.17521H7.10184C6.97202 9.17521 6.86075 9.06352 6.86075 8.93321V7.14615C6.8422 6.38292 7.47276 5.75 8.23313 5.75H11.6084C12.3688 5.75 12.9994 6.38292 12.9994 7.14615V8.93321C12.9994 9.06352 12.8881 9.17521 12.7583 9.17521ZM7.34294 8.69121H12.4986V7.14615C12.4986 6.64353 12.0906 6.25261 11.6084 6.25261H8.23313C7.7324 6.25261 7.34294 6.66215 7.34294 7.14615V8.69121Z" fill="#000030"/>
<path d="M14.1492 11.0367H5.71094V14.1641H14.1492V11.0367Z" fill="#FFDB94"/>
<path d="M14.1491 14.4061H5.71082C5.581 14.4061 5.46973 14.2944 5.46973 14.1641V11.0367C5.46973 10.9064 5.581 10.7947 5.71082 10.7947H14.1491C14.2789 10.7947 14.3902 10.9064 14.3902 11.0367V14.1641C14.3902 14.2944 14.2789 14.4061 14.1491 14.4061ZM5.95191 13.9221H13.8894V11.2974H5.95191V13.9221Z" fill="#000030"/>
<path d="M33.5661 14.1641C34.4265 14.1641 35.124 13.464 35.124 12.6004C35.124 11.7368 34.4265 11.0367 33.5661 11.0367C32.7058 11.0367 32.0083 11.7368 32.0083 12.6004C32.0083 13.464 32.7058 14.1641 33.5661 14.1641Z" fill="white"/>
<path d="M33.566 14.4061C32.5646 14.4061 31.7671 13.587 31.7671 12.6004C31.7671 11.5952 32.5831 10.7947 33.566 10.7947C34.5675 10.7947 35.3649 11.6138 35.3649 12.6004C35.3649 13.6056 34.5675 14.4061 33.566 14.4061ZM33.566 11.2974C32.8427 11.2974 32.2493 11.893 32.2493 12.619C32.2493 13.345 32.8427 13.9407 33.566 13.9407C34.2893 13.9407 34.8828 13.345 34.8828 12.619C34.8828 11.8744 34.2893 11.2974 33.566 11.2974Z" fill="#000030"/>
<path d="M23.8106 30.3222C28.686 30.3222 32.6384 26.355 32.6384 21.4613C32.6384 16.5676 28.686 12.6004 23.8106 12.6004C18.9352 12.6004 14.9829 16.5676 14.9829 21.4613C14.9829 26.355 18.9352 30.3222 23.8106 30.3222Z" fill="#88EEE5"/>
<path d="M23.8105 30.5828C18.8032 30.5828 14.7231 26.4874 14.7231 21.4613C14.7231 16.4352 18.8032 12.3398 23.8105 12.3398C28.8178 12.3398 32.8979 16.4352 32.8979 21.4613C32.8979 26.4874 28.8178 30.5828 23.8105 30.5828ZM23.8105 12.861C19.0814 12.861 15.2239 16.733 15.2239 21.4799C15.2239 26.2268 19.0814 30.0988 23.8105 30.0988C28.5396 30.0988 32.3971 26.2268 32.3971 21.4799C32.3971 16.733 28.5396 12.861 23.8105 12.861Z" fill="#000030"/>
<path d="M25.7531 26.1741C28.346 25.096 29.5773 22.1123 28.5032 19.5096C27.4292 16.907 24.4566 15.6712 21.8637 16.7492C19.2709 17.8273 18.0396 20.811 19.1136 23.4136C20.1877 26.0162 23.1603 27.2521 25.7531 26.1741Z" fill="#59DBD2"/>
<path d="M23.8109 26.8225C20.8621 26.8225 18.4697 24.4211 18.4697 21.4613C18.4697 18.5015 20.8621 16.1001 23.8109 16.1001C26.7596 16.1001 29.152 18.5015 29.152 21.4613C29.152 24.4211 26.7596 26.8225 23.8109 26.8225ZM23.8109 16.6213C21.1403 16.6213 18.9705 18.7993 18.9705 21.4799C18.9705 24.1605 21.1403 26.3385 23.8109 26.3385C26.4814 26.3385 28.6513 24.1605 28.6513 21.4799C28.6513 18.7993 26.4814 16.6213 23.8109 16.6213Z" fill="#000030"/>
</svg>
