<svg width="40" height="40" viewBox="0 0 40 40" fill="none" xmlns="http://www.w3.org/2000/svg">
<path d="M29.3855 38.7449H10.6386C8.89335 38.7449 7.48145 37.4327 7.48145 35.8107V7.89061H30.5621C31.6603 7.89061 32.5427 8.71072 32.5427 9.7313V35.8107C32.5427 37.4327 31.1308 38.7449 29.3855 38.7449Z" fill="#88EEE5"/>
<path d="M29.3852 39H10.6382C8.7361 39 7.20654 37.5603 7.20654 35.8107V7.89061C7.20654 7.76303 7.3242 7.65369 7.46147 7.65369H30.5421C31.7775 7.65369 32.7973 8.58314 32.7973 9.74952V35.8107C32.7973 37.5603 31.2677 39 29.3852 39ZM7.73601 8.12753V35.8107C7.73601 37.3051 9.03025 38.508 10.6382 38.508H29.3852C30.9932 38.508 32.2874 37.3051 32.2874 35.8107V9.73129C32.2874 8.85651 31.5226 8.12753 30.5617 8.12753H7.73601Z" fill="#000030"/>
<path d="M29.2287 7.8906H7.46191L26.5422 1.36619C27.8364 0.928796 29.2091 1.8218 29.2091 3.09753V7.8906H29.2287Z" fill="#FFDB94"/>
<path d="M29.2285 8.12744H7.46173C7.34407 8.12744 7.22641 8.03632 7.2068 7.92697C7.18719 7.81762 7.24602 7.69005 7.38329 7.6536L26.4636 1.12919C27.1695 0.892268 27.9147 0.983391 28.5226 1.38433C29.1305 1.78527 29.4835 2.40491 29.4835 3.09745V7.89052C29.4835 8.01809 29.3658 8.12744 29.2285 8.12744ZM8.95207 7.63538H28.954V3.07922C28.954 2.55071 28.6795 2.07687 28.2088 1.76705C27.7382 1.45723 27.1695 1.40256 26.6204 1.5848L8.95207 7.63538Z" fill="#000030"/>
<path d="M20.4436 24.3656C24.7215 24.3656 28.1894 21.1426 28.1894 17.1669C28.1894 13.1911 24.7215 9.96817 20.4436 9.96817C16.1657 9.96817 12.6978 13.1911 12.6978 17.1669C12.6978 21.1426 16.1657 24.3656 20.4436 24.3656Z" fill="#C6CA76"/>
<path d="M20.4436 24.6025C16.0315 24.6025 12.4429 21.2674 12.4429 17.1669C12.4429 13.0664 16.0315 9.73126 20.4436 9.73126C24.8558 9.73126 28.4444 13.0664 28.4444 17.1669C28.4444 21.2674 24.8558 24.6025 20.4436 24.6025ZM20.4436 10.2051C16.3256 10.2051 12.9527 13.3215 12.9527 17.1669C12.9527 20.9941 16.306 24.1287 20.4436 24.1287C24.5617 24.1287 27.9346 21.0123 27.9346 17.1669C27.9346 13.3215 24.5617 10.2051 20.4436 10.2051Z" fill="#000030"/>
<path d="M20.4436 24.3656C23.2378 24.3656 25.5029 21.1426 25.5029 17.1669C25.5029 13.1911 23.2378 9.96817 20.4436 9.96817C17.6494 9.96817 15.3843 13.1911 15.3843 17.1669C15.3843 21.1426 17.6494 24.3656 20.4436 24.3656Z" fill="#C6CA76"/>
<path d="M20.4432 24.6025C17.5018 24.6025 15.1094 21.2674 15.1094 17.1669C15.1094 13.0664 17.5018 9.73126 20.4432 9.73126C23.3847 9.73126 25.7771 13.0664 25.7771 17.1669C25.7771 21.2674 23.3847 24.6025 20.4432 24.6025ZM20.4432 10.2051C17.7959 10.2051 15.6388 13.3215 15.6388 17.1669C15.6388 20.9941 17.7959 24.1287 20.4432 24.1287C23.0905 24.1105 25.2476 20.9941 25.2476 17.1669C25.2476 13.3215 23.0905 10.2051 20.4432 10.2051Z" fill="#000030"/>
<path d="M20.4434 24.6025C20.3061 24.6025 20.1885 24.4932 20.1885 24.3656V9.96818C20.1885 9.84061 20.3061 9.73126 20.4434 9.73126C20.5807 9.73126 20.6983 9.84061 20.6983 9.96818V24.3656C20.6983 24.4932 20.5807 24.6025 20.4434 24.6025Z" fill="#000030"/>
<path d="M28.1895 17.4038H12.6978C12.5605 17.4038 12.4429 17.2945 12.4429 17.1669C12.4429 17.0393 12.5605 16.93 12.6978 16.93H28.1895C28.3268 16.93 28.4444 17.0393 28.4444 17.1669C28.4444 17.2945 28.3268 17.4038 28.1895 17.4038Z" fill="#000030"/>
<path d="M20.4434 24.6026C18.1883 24.6026 16.0312 23.7095 14.5213 22.1605C14.4232 22.0693 14.4232 21.9235 14.5213 21.8324C16.0312 20.3015 18.1883 19.4085 20.4434 19.4085C22.6986 19.4085 24.8556 20.3015 26.3656 21.8506C26.4636 21.9418 26.4636 22.0876 26.3656 22.1787C24.8556 23.7095 22.6986 24.6026 20.4434 24.6026ZM15.0704 21.9964C16.4823 23.3451 18.4236 24.1105 20.4434 24.1105C22.4632 24.1105 24.4046 23.3451 25.8165 21.9964C24.4046 20.6478 22.4632 19.8824 20.4434 19.8824C18.4236 19.9006 16.4823 20.666 15.0704 21.9964Z" fill="#000030"/>
<path d="M20.4434 14.9253C18.1883 14.9253 16.0312 14.0323 14.5213 12.4832C14.4232 12.3921 14.4232 12.2463 14.5213 12.1551C16.0312 10.606 18.1883 9.71304 20.4434 9.71304C22.6986 9.71304 24.8556 10.606 26.3656 12.1551C26.4636 12.2463 26.4636 12.3921 26.3656 12.4832C24.8556 14.0323 22.6986 14.9253 20.4434 14.9253ZM15.0704 12.3192C16.4823 13.6678 18.4236 14.4332 20.4434 14.4332C22.4632 14.4332 24.4046 13.6678 25.8165 12.3192C24.4046 10.9705 22.4632 10.2051 20.4434 10.2051C18.4236 10.2051 16.4823 10.9705 15.0704 12.3192Z" fill="#000030"/>
<path d="M15.6588 30.7078C15.6588 32.4938 13.9135 32.5121 13.8743 32.5121H13.0703V35.3187H12.0898V28.9218H13.8743C13.9332 28.9218 14.3646 28.94 14.7764 29.1587C15.1686 29.3592 15.6588 29.8148 15.6588 30.7078ZM14.6783 30.7078C14.6783 30.2522 14.5411 29.9788 14.2861 29.833C14.0704 29.7055 13.8743 29.7055 13.8743 29.7055H13.0703V31.692H13.8743C13.8939 31.692 14.09 31.6737 14.3057 31.5644C14.5607 31.4368 14.6783 31.1452 14.6783 30.7078Z" fill="#FFDB94"/>
<path d="M13.2465 35.4644H11.9131V28.7396H13.8741C13.9329 28.7396 14.4035 28.7396 14.8545 28.9947C15.2271 29.1952 15.835 29.6872 15.835 30.7078C15.835 32.2569 14.5604 32.6761 13.8741 32.6761H13.2465V35.4644ZM12.2661 35.1364H12.8936V32.348H13.8741C13.9329 32.348 15.4821 32.3298 15.4821 30.7078C15.4821 29.8877 15.0506 29.4868 14.6781 29.2681C14.3055 29.0676 13.8937 29.0676 13.8741 29.0676H12.2661V35.1364ZM13.8741 31.8742H12.8936V29.5597H13.8741C13.8937 29.5597 14.1094 29.5597 14.3643 29.7055C14.6781 29.8877 14.8349 30.2158 14.8349 30.726C14.8349 31.2181 14.6781 31.5644 14.3839 31.7284C14.129 31.856 13.8741 31.8742 13.8741 31.8742ZM13.2465 31.5462H13.8741C13.8741 31.5462 14.0309 31.5462 14.2074 31.4368C14.4035 31.3275 14.5016 31.0905 14.5016 30.7078C14.5016 30.1975 14.3251 30.0517 14.1878 29.9788C14.0113 29.8877 13.8741 29.8877 13.8741 29.8877H13.2465V31.5462Z" fill="#000030"/>
<path d="M18.1884 33.3139H16.7569L16.2862 35.3187H15.2861L16.7569 28.9218H18.1492L19.6199 35.3187H18.6198L18.1884 33.3139ZM18.0119 32.5121L17.4824 30.2158C17.2863 30.9994 17.1294 31.7284 16.953 32.5121H18.0119Z" fill="#FFDB94"/>
<path d="M19.8747 35.4644H18.5216L18.051 33.4597H16.894L16.4234 35.4644H15.0703L16.6195 28.7396H18.3059L19.8747 35.4644ZM18.7962 35.1364H19.4237L18.0314 29.0676H16.9136L15.5213 35.1364H16.1488L16.6195 33.1317H18.3451L18.7962 35.1364ZM18.2275 32.6761H16.7371L16.8352 32.2387C16.9921 31.5462 17.1489 30.8718 17.3058 30.1793H17.6392L18.2275 32.6761ZM17.1686 32.348H17.7961L17.4823 30.9812C17.3843 31.4186 17.2862 31.856 17.1686 32.3116V32.348Z" fill="#000030"/>
<path d="M22.7965 30.9083V30.5074C22.7965 30.3616 22.6984 29.7055 21.9925 29.7055C21.2865 29.7055 21.1885 30.3616 21.1885 30.5074V30.9083C21.2081 30.9812 21.3062 31.4733 22.1494 31.7284C23.7574 32.2387 23.777 33.2593 23.777 33.2957V33.6967C23.777 33.7331 23.7574 34.0794 23.5613 34.4803C23.2671 35.0088 22.7181 35.3004 21.9925 35.3004C21.2669 35.3004 20.7179 35.0088 20.4237 34.4803C20.208 34.0794 20.208 33.7331 20.208 33.6967V33.2957H21.1885V33.6967C21.1885 33.8425 21.3062 34.4986 21.9925 34.4986C22.6984 34.4986 22.7965 33.8425 22.7965 33.6967V33.2957C22.7965 33.2411 22.6984 32.749 21.8356 32.4756C20.2864 31.9653 20.208 30.9448 20.208 30.8901V30.4891C20.208 30.4527 20.2276 30.1064 20.4237 29.7055C20.7179 29.177 21.2669 28.8854 21.9925 28.8854C22.7181 28.8854 23.2671 29.177 23.5613 29.7055C23.777 30.1064 23.777 30.4527 23.777 30.4891V30.8901H22.7965V30.9083Z" fill="#FFDB94"/>
<path d="M22.0122 35.4645C21.2279 35.4645 20.6003 35.1364 20.2866 34.5532C20.0513 34.1158 20.0513 33.7149 20.0513 33.6967V33.1317H21.3847V33.6967C21.3847 33.6967 21.4043 34.3345 22.0122 34.3345C22.6201 34.3345 22.6398 33.6967 22.6398 33.6967V33.2957C22.6398 33.2957 22.5613 32.8766 21.7965 32.6214C20.1101 32.0747 20.0513 30.8901 20.0513 30.8901V30.4891C20.0513 30.4709 20.0513 30.0882 20.2866 29.6326C20.6003 29.0494 21.2279 28.7213 22.0122 28.7213C22.7966 28.7213 23.4241 29.0494 23.7379 29.6326C23.9732 30.07 23.9732 30.4709 23.9732 30.4891V31.0541H22.6398V30.4891C22.6398 30.4891 22.6398 29.8513 22.0122 29.8513C21.4043 29.8513 21.3847 30.4709 21.3847 30.4891V30.8718C21.4043 30.9265 21.5024 31.3275 22.2279 31.5462C23.9536 32.0929 23.9732 33.2228 23.9732 33.2775V33.6784C23.9732 33.6967 23.9732 34.0794 23.7379 34.535C23.4045 35.1364 22.777 35.4645 22.0122 35.4645ZM20.4042 33.4597V33.6967C20.4042 33.6967 20.4042 34.0247 20.6003 34.4074C20.8553 34.8813 21.3455 35.1364 22.0122 35.1364C22.6594 35.1364 23.1692 34.8813 23.4241 34.4074C23.6202 34.0429 23.6202 33.7149 23.6202 33.6967V33.2957C23.6202 33.2593 23.6006 32.348 22.1103 31.8742C21.1494 31.5644 21.0318 30.9812 21.0318 30.9083V30.8901V30.4891C21.0318 30.234 21.2082 29.5232 22.0122 29.5232C22.7966 29.5232 22.9927 30.234 22.9927 30.4891V30.7261H23.6202V30.4891C23.6202 30.4891 23.6202 30.1611 23.4241 29.7784C23.1692 29.3045 22.679 29.0494 22.0122 29.0494C21.3651 29.0494 20.8553 29.3045 20.6003 29.7784C20.4042 30.1429 20.4042 30.4709 20.4042 30.4891V30.8901C20.4042 30.8901 20.4631 31.8378 21.9142 32.3116C22.7966 32.6032 22.9927 33.1317 22.9927 33.2957V33.6967C22.9927 33.9518 22.8162 34.6626 22.0122 34.6626C21.2671 34.6626 21.0318 34.0065 21.0318 33.6967V33.4597H20.4042Z" fill="#000030"/>
<path d="M26.9342 30.9083V30.5074C26.9342 30.3616 26.8361 29.7055 26.1302 29.7055C25.4242 29.7055 25.3262 30.3616 25.3262 30.5074V30.9083C25.3458 30.9812 25.4438 31.4733 26.2871 31.7284C27.8951 32.2387 27.9147 33.2593 27.9147 33.2957V33.6967C27.9147 33.7331 27.8951 34.0794 27.699 34.4803C27.4048 35.0088 26.8557 35.3004 26.1302 35.3004C25.4046 35.3004 24.8556 35.0088 24.5614 34.4803C24.3457 34.0794 24.3457 33.7331 24.3457 33.6967V33.2957H25.3262V33.6967C25.3262 33.8425 25.4438 34.4986 26.1302 34.4986C26.8361 34.4986 26.9342 33.8425 26.9342 33.6967V33.2957C26.9342 33.2411 26.8361 32.749 25.9733 32.4756C24.4241 31.9653 24.3457 30.9448 24.3457 30.8901V30.4891C24.3457 30.4527 24.3653 30.1064 24.5614 29.7055C24.8556 29.177 25.4046 28.8854 26.1302 28.8854C26.8557 28.8854 27.4048 29.177 27.699 29.7055C27.9147 30.1064 27.9147 30.4527 27.9147 30.4891V30.8901H26.9342V30.9083Z" fill="#FFDB94"/>
<path d="M26.1304 35.4645C25.346 35.4645 24.7185 35.1364 24.4047 34.5532C24.1694 34.1158 24.1694 33.7149 24.1694 33.6967V33.1317H25.5029V33.6967C25.5029 33.6967 25.5225 34.3345 26.1304 34.3345C26.7383 34.3345 26.7579 33.6967 26.7579 33.6967V33.2957C26.7579 33.2957 26.6795 32.8766 25.9147 32.6214C24.2283 32.0747 24.1694 30.8901 24.1694 30.8901V30.4891C24.1694 30.4709 24.1694 30.0882 24.4047 29.6326C24.7185 29.0494 25.346 28.7213 26.1304 28.7213C26.9148 28.7213 27.5423 29.0494 27.8561 29.6326C28.0914 30.07 28.0914 30.4709 28.0914 30.4891V31.0541H26.7579V30.4891C26.7579 30.4891 26.7579 29.8513 26.1304 29.8513C25.5225 29.8513 25.5029 30.4709 25.5029 30.4891V30.8718C25.5225 30.9265 25.6206 31.3275 26.3461 31.5462C28.0718 32.0929 28.0914 33.2228 28.0914 33.2775V33.6784C28.0914 33.6967 28.0914 34.0794 27.8561 34.535C27.5423 35.1364 26.9148 35.4645 26.1304 35.4645ZM24.5224 33.4597V33.6967C24.5224 33.6967 24.5224 34.0247 24.7185 34.4074C24.9734 34.8813 25.4637 35.1364 26.1304 35.1364C26.7775 35.1364 27.2874 34.8813 27.5423 34.4074C27.7384 34.0429 27.7384 33.7149 27.7384 33.6967V33.2957C27.7384 33.2593 27.7188 32.348 26.2285 31.8742C25.2676 31.5644 25.1499 30.9812 25.1499 30.9083V30.8901V30.4891C25.1499 30.234 25.3264 29.5232 26.1304 29.5232C26.9148 29.5232 27.1109 30.234 27.1109 30.4891V30.7261H27.7384V30.4891C27.7384 30.4891 27.7384 30.1611 27.5423 29.7784C27.2874 29.3045 26.7971 29.0494 26.1304 29.0494C25.4637 29.0494 24.9734 29.3045 24.7185 29.7784C24.5224 30.1429 24.5224 30.4709 24.5224 30.4891V30.8901C24.5224 30.8901 24.5812 31.8378 26.0324 32.3116C26.9148 32.6032 27.1109 33.1317 27.1109 33.2957V33.6967C27.1109 33.9518 26.9344 34.6626 26.1304 34.6626C25.3852 34.6626 25.1499 34.0065 25.1499 33.6967V33.4597H24.5224Z" fill="#000030"/>
</svg>
