<svg width="40" height="40" viewBox="0 0 40 40" fill="none" xmlns="http://www.w3.org/2000/svg">
<path d="M33.3905 4.29544H6.62744C6.62744 2.60117 7.96194 1.24203 9.62549 1.24203H30.3742C32.0378 1.24203 33.3905 2.61979 33.3905 4.29544Z" fill="#FF8776"/>
<path d="M33.3904 4.5561H6.6273C6.49933 4.5561 6.38965 4.44439 6.38965 4.31406C6.38965 2.48947 7.83383 1 9.62535 1H30.3741C32.1656 1 33.6098 2.48947 33.6098 4.29544C33.628 4.44439 33.5184 4.5561 33.3904 4.5561ZM6.88323 4.05341H33.1345C33.0065 2.61979 31.8365 1.50269 30.3923 1.50269H9.62535C8.19945 1.50269 7.0112 2.61979 6.88323 4.05341Z" fill="#000030"/>
<path d="M30.8129 34.9784H9.20504C7.77913 34.9784 6.62744 33.8055 6.62744 32.3533V23.3978H33.3905V32.3533C33.3905 33.8055 32.2389 34.9784 30.8129 34.9784Z" fill="#FF8776"/>
<path d="M30.8128 35.2205H9.20489C7.65102 35.2205 6.38965 33.9358 6.38965 32.3533V23.3978C6.38965 23.2675 6.49933 23.1558 6.6273 23.1558H33.3904C33.5184 23.1558 33.6281 23.2675 33.6281 23.3978V32.3533C33.6281 33.9358 32.3667 35.2205 30.8128 35.2205ZM6.86495 23.6585V32.3533C6.86495 33.6565 7.90696 34.7178 9.18661 34.7178H30.7945C32.0742 34.7178 33.1162 33.6565 33.1162 32.3533V23.6585H6.86495Z" fill="#000030"/>
<path d="M33.3905 4.29544H6.62744V23.3978H33.3905V4.29544Z" fill="#88EEE5"/>
<path d="M33.3904 23.6585H6.6273C6.49933 23.6585 6.38965 23.5468 6.38965 23.4165V4.29544C6.38965 4.16512 6.49933 4.05341 6.6273 4.05341H33.3904C33.5184 4.05341 33.6281 4.16512 33.6281 4.29544V23.3978C33.6281 23.5468 33.5184 23.6585 33.3904 23.6585ZM6.86495 23.1558H33.1345V4.5561H6.86495V23.1558Z" fill="#000030"/>
<path d="M9.91799 31.1058H6.62744V27.2705H9.91799C10.96 27.2705 11.8009 28.1269 11.8009 29.1881C11.8009 30.2494 10.96 31.1058 9.91799 31.1058Z" fill="#FFDB94"/>
<path d="M9.91784 31.3479H6.6273C6.49933 31.3479 6.38965 31.2362 6.38965 31.1058V27.2705C6.38965 27.1401 6.49933 27.0284 6.6273 27.0284H9.91784C11.0878 27.0284 12.0384 27.9966 12.0384 29.1882C12.0384 30.3797 11.0878 31.3479 9.91784 31.3479ZM6.86495 30.8638H9.89956C10.7953 30.8638 11.5266 30.1191 11.5266 29.2068C11.5266 28.2945 10.7953 27.5497 9.89956 27.5497H6.86495V30.8638Z" fill="#000030"/>
<path d="M33.3903 31.1058H30.0997C29.0577 31.1058 28.2168 30.2494 28.2168 29.1881C28.2168 28.1269 29.0577 27.2705 30.0997 27.2705H33.3903V31.1058Z" fill="#FFDB94"/>
<path d="M33.3901 31.3479H30.0996C28.9296 31.3479 27.979 30.3797 27.979 29.1882C27.979 27.9966 28.9296 27.0284 30.0996 27.0284H33.3901C33.5181 27.0284 33.6278 27.1401 33.6278 27.2705V31.1058C33.6278 31.2362 33.5181 31.3479 33.3901 31.3479ZM30.0996 27.5311C29.2038 27.5311 28.4726 28.2759 28.4726 29.1882C28.4726 30.1004 29.2038 30.8452 30.0996 30.8452H33.1342V27.5125H30.0996V27.5311Z" fill="#000030"/>
<path d="M24.8166 27.5311H15.1278C14.9998 27.5311 14.8901 27.4194 14.8901 27.2891C14.8901 27.1588 14.9998 27.047 15.1278 27.047H24.8349C24.9629 27.047 25.0725 27.1588 25.0725 27.2891C25.0725 27.4194 24.9629 27.5311 24.8166 27.5311Z" fill="#000030"/>
<path d="M24.8166 31.3479H15.1278C14.9998 31.3479 14.8901 31.2362 14.8901 31.1058C14.8901 30.9755 14.9998 30.8638 15.1278 30.8638H24.8349C24.9629 30.8638 25.0725 30.9755 25.0725 31.1058C25.0725 31.2362 24.9629 31.3479 24.8166 31.3479Z" fill="#000030"/>
<path d="M24.8166 29.4488H15.1278C14.9998 29.4488 14.8901 29.3371 14.8901 29.2068C14.8901 29.0764 14.9998 28.9647 15.1278 28.9647H24.8349C24.9629 28.9647 25.0725 29.0764 25.0725 29.2068C25.0725 29.3185 24.9629 29.4488 24.8166 29.4488Z" fill="#000030"/>
<path d="M10.5207 38.758C9.49695 38.758 8.67432 37.9201 8.67432 36.8775V34.9971H12.3853V36.8775C12.367 37.9015 11.5444 38.758 10.5207 38.758Z" fill="#FF8776"/>
<path d="M10.5207 39C9.36906 39 8.41846 38.0505 8.41846 36.8589V34.9784C8.41846 34.8481 8.52814 34.7364 8.65611 34.7364H12.3671C12.4951 34.7364 12.6048 34.8481 12.6048 34.9784V36.8589C12.623 38.0318 11.6724 39 10.5207 39ZM8.91204 35.2205V36.8589C8.91204 37.7526 9.62499 38.4973 10.5207 38.4973C11.4165 38.4973 12.1295 37.7712 12.1295 36.8589V35.2205H8.91204Z" fill="#000030"/>
<path d="M29.4968 38.758C28.473 38.758 27.6504 37.9201 27.6504 36.8775V34.9971H31.3614V36.8775C31.3431 37.9015 30.5205 38.758 29.4968 38.758Z" fill="#FF8776"/>
<path d="M29.4968 39C28.3451 39 27.3945 38.0505 27.3945 36.8589V34.9784C27.3945 34.8481 27.5042 34.7364 27.6322 34.7364H31.3432C31.4712 34.7364 31.5808 34.8481 31.5808 34.9784V36.8589C31.5808 38.0318 30.6485 39 29.4968 39ZM27.8881 35.2205V36.8589C27.8881 37.7526 28.6011 38.4973 29.4968 38.4973C30.3743 38.4973 31.1055 37.7712 31.1055 36.8589V35.2205H27.8881Z" fill="#000030"/>
<path d="M33.3905 16.4904C33.3722 16.4904 33.3356 16.4904 33.3174 16.4718C33.226 16.4346 33.1528 16.3415 33.1528 16.2298V11.4635C33.1528 11.3518 33.226 11.2587 33.3174 11.2215C33.4088 11.1842 33.5184 11.2215 33.5916 11.3145L35.3831 13.6977C35.4562 13.7908 35.4562 13.9025 35.3831 13.9956L33.5916 16.3787C33.5367 16.4532 33.4636 16.4904 33.3905 16.4904ZM33.6281 12.2082V15.5037L34.8712 13.8466L33.6281 12.2082Z" fill="#000030"/>
<path d="M36.5164 17.9985C35.7668 17.9985 35.1636 17.3841 35.1636 16.6208V11.0725C35.1636 10.3092 35.7668 9.69475 36.5164 9.69475C37.2659 9.69475 37.8691 10.3092 37.8691 11.0725V16.6208C37.8691 17.3841 37.2659 17.9985 36.5164 17.9985Z" fill="#59DBD2"/>
<path d="M36.5162 18.2592C35.6387 18.2592 34.9258 17.5331 34.9258 16.6394V11.0725C34.9258 10.1788 35.6387 9.45271 36.5162 9.45271C37.3937 9.45271 38.1066 10.1788 38.1066 11.0725V16.6208C38.1249 17.5331 37.3937 18.2592 36.5162 18.2592ZM36.5162 9.95541C35.9129 9.95541 35.4194 10.4581 35.4194 11.0725V16.6208C35.4194 17.2352 35.9129 17.7379 36.5162 17.7379C37.1195 17.7379 37.6131 17.2352 37.6131 16.6208V11.0725C37.6313 10.4581 37.1378 9.95541 36.5162 9.95541Z" fill="#000030"/>
<path d="M6.62753 16.4904C6.55441 16.4904 6.48128 16.4532 6.42644 16.3973L4.63492 14.0142C4.5618 13.9211 4.5618 13.8094 4.63492 13.7163L6.42644 11.3332C6.48128 11.2401 6.60925 11.2215 6.70065 11.2401C6.79206 11.2773 6.86518 11.3704 6.86518 11.4821V16.2484C6.86518 16.3601 6.79206 16.4532 6.70065 16.4904C6.68237 16.4904 6.64581 16.4904 6.62753 16.4904ZM5.14678 13.8466L6.38988 15.5037V12.2082L5.14678 13.8466Z" fill="#000030"/>
<path d="M3.48315 17.9985C4.23266 17.9985 4.83593 17.3841 4.83593 16.6208V11.0725C4.83593 10.3092 4.23266 9.69475 3.48315 9.69475C2.73364 9.69475 2.13037 10.3092 2.13037 11.0725V16.6208C2.13037 17.3841 2.73364 17.9985 3.48315 17.9985Z" fill="#59DBD2"/>
<path d="M3.48301 18.2592C2.60553 18.2592 1.89258 17.5331 1.89258 16.6394V11.0725C1.89258 10.1788 2.60553 9.45271 3.48301 9.45271C4.36049 9.45271 5.07344 10.1788 5.07344 11.0725V16.6208C5.07344 17.5331 4.36049 18.2592 3.48301 18.2592ZM3.48301 9.95541C2.87974 9.95541 2.38616 10.4581 2.38616 11.0725V16.6208C2.38616 17.2352 2.87974 17.7379 3.48301 17.7379C4.08628 17.7379 4.57986 17.2352 4.57986 16.6208V11.0725C4.59814 10.4581 4.10456 9.95541 3.48301 9.95541Z" fill="#000030"/>
</svg>
